HIERARCHY
ROOT Hips
{
  OFFSET -32.5998 29.0326 120.673
  CHANNELS 6 Xposition Yposition Zposition Zrotation Xrotation Yrotation
  JOINT LeftUpLeg
  {
    OFFSET 8.64259 1.95398 -2.38835
    CHANNELS 3 Zrotation Xrotation Yrotation
    JOINT LeftLeg
    {
      OFFSET 43.7702 0 0
      CHANNELS 3 Zrotation Xrotation Yrotation
      JOINT LeftFoot
      {
        OFFSET 40.6238 0 0
        CHANNELS 3 Zrotation Xrotation Yrotation
        JOINT LeftToeBase
        {
          OFFSET 12.7242 0 0
          CHANNELS 3 Zrotation Xrotation Yrotation
          End Site
          {
            OFFSET 0 0 0
          }
        }
      }
    }
  }
  JOINT RightUpLeg
  {
    OFFSET -8.2249 1.95398 -2.59336
    CHANNELS 3 Zrotation Xrotation Yrotation
    JOINT RightLeg
    {
      OFFSET 43.5653 0 0
      CHANNELS 3 Zrotation Xrotation Yrotation
      JOINT RightFoot
      {
        OFFSET 40.6238 0 0
        CHANNELS 3 Zrotation Xrotation Yrotation
        JOINT RightToeBase
        {
          OFFSET 12.7242 0 0
          CHANNELS 3 Zrotation Xrotation Yrotation
          End Site
          {
            OFFSET 0 0 0
          }
        }
      }
    }
  }
  JOINT Spine
  {
    OFFSET 0.165834 0.87714 6.61349
    CHANNELS 3 Zrotation Xrotation Yrotation
    JOINT Spine1
    {
      OFFSET 7.38963 1.71661e-005 0
      CHANNELS 3 Zrotation Xrotation Yrotation
      JOINT Spine2
      {
        OFFSET 11.9445 1.14441e-005 0
        CHANNELS 3 Zrotation Xrotation Yrotation
        JOINT Spine3
        {
          OFFSET 14.7254 4.19617e-005 0
          CHANNELS 3 Zrotation Xrotation Yrotation
          JOINT Spine4
          {
            OFFSET 10.9679 0 0
            CHANNELS 3 Zrotation Xrotation Yrotation
            JOINT RightShoulder
            {
              OFFSET 2.46616 -1.6653 3.69651
              CHANNELS 3 Zrotation Xrotation Yrotation
              JOINT RightArm
              {
                OFFSET 13.0012 0 0
                CHANNELS 3 Zrotation Xrotation Yrotation
                JOINT RightForeArm
                {
                  OFFSET 28.7848 1.62311e-005 0
                  CHANNELS 3 Zrotation Xrotation Yrotation
                  JOINT RightHand
                  {
                    OFFSET 26.5688 1.62095e-005 0
                    CHANNELS 3 Zrotation Xrotation Yrotation
                    End Site
                    {
                      OFFSET 0 0 0
                    }
                  }
                }
              }
            }
            JOINT LeftShoulder
            {
              OFFSET 2.38034 -1.29275 -3.7523
              CHANNELS 3 Zrotation Xrotation Yrotation
              JOINT LeftArm
              {
                OFFSET 16.3182 6.07031e-005 0
                CHANNELS 3 Zrotation Xrotation Yrotation
                JOINT LeftForeArm
                {
                  OFFSET 27.0901 0 0
                  CHANNELS 3 Zrotation Xrotation Yrotation
                  JOINT LeftHand
                  {
                    OFFSET 24.5451 1.51738e-005 0
                    CHANNELS 3 Zrotation Xrotation Yrotation
                    End Site
                    {
                      OFFSET 0 0 0
                    }
                  }
                }
              }
            }
            JOINT Neck
            {
              OFFSET 5.0226 -0.0266342 0
              CHANNELS 3 Zrotation Xrotation Yrotation
              JOINT Head
              {
                OFFSET 6.69364 2.86102e-005 0
                CHANNELS 3 Zrotation Xrotation Yrotation
                End Site
                {
                  OFFSET 0 0 0
                }
              }
            }
          }
        }
      }
    }
  }
}
MOTION
Frames:	10
Frame Time:	0.0416667
34.0044 96.612 0.921071 -111.257 -70.3995 -113.804 -178.051 19.8471 85.2886 -16.0974 12.4988 -0.43026 59.0979 -1.14269 -4.41319 18.4938 -10.199 10.6224 170.493 -19.1968 87.4682 -23.1386 -27.7816 -3.03008 75.3514 -11.2205 -7.03724 31.5685 -2.13283 4.1416 1.78844 8.07543 -89.8359 10.7275 3.63713 -0.00816826 -0.938371 3.63324 -0.168457 -23.5118 3.47122 1.08666 -3.49916 3.47122 1.08665 89.1569 -25.8128 -110.241 29.3974 -7.46871 -18.6094 -26.3648 -13.6286 -46.5149 -10.3775 -0.311499 -1.76425 -86.1709 -54.572 85.1318 -25.9897 12.029 9.40175 7.70339 -13.0143 -4.73782 -2.66955 -0.0952103 -2.56392 3.7786 -9.26362 -0.631612 -3.81605 -8.97805 -10.3407 
31.3871 97.2066 11.8217 -108 -65.9928 -112.892 -176.112 17.8013 83.3297 -26.891 11.2606 -1.9355 63.201 0.187818 -7.19106 15.8534 -14.2494 14.6737 170.559 -15.3175 83.4617 -38.4122 -28.4226 -6.91073 64.6832 -2.73379 -4.26154 33.686 -3.31918 6.30757 1.65738 7.93367 -89.4671 10.9982 3.54634 0.722867 -0.668001 3.57472 0.565887 -23.2339 3.165 1.75619 -3.22122 3.165 1.75619 90.1793 -25.5861 -108.19 37.7979 -16.1384 -15.39 -22.0116 -17.9888 -36.0096 -9.4802 -0.116257 -3.94745 -87.0041 -52.9822 83.6975 -28.3032 11.6568 6.28745 7.81463 -13.0593 -4.08708 -4.97996 -0.103132 -4.06742 4.65489 -9.07184 -3.03785 -4.99959 -8.26677 -8.69514 
28.8176 97.9396 20.4387 -106.763 -60.5963 -113.282 -175.18 10.2586 81.7496 -27.3731 6.97229 -2.95033 69.3484 3.57211 -6.53031 18.0149 -12.2018 13.5619 173.802 -1.65661 81.4832 -61.8485 -24.33 -8.08372 59.0234 1.56249 -1.54232 18.9155 2.63639 5.41403 1.11682 8.05347 -89.198 10.7498 2.59374 1.35531 -0.919094 2.65088 1.23979 -23.4629 2.06656 2.07226 -3.45025 2.06656 2.07227 89.4244 -27.1501 -109.085 42.0278 -23.4212 -11.1634 -13.5275 -18.0357 -23.7404 -8.01753 -0.0147757 -5.18851 -87.5212 -52.0862 82.7971 -25.5174 13.859 -3.02227 7.59149 -15.6442 -1.61488 -1.84424 -0.0882308 -4.53067 6.03099 -7.27112 -3.32696 -4.38291 -6.43426 -8.19603 
25.8842 98.7869 27.3594 -103.838 -54.9198 -108.86 -174.211 3.09586 83.0764 -25.0097 2.96605 -3.28699 74.0605 6.27865 -5.66673 18.617 -11.6108 13.187 177.54 10.2924 85.377 -65.8587 -18.3423 -6.79529 66.1691 -3.42963 -4.41621 22.6237 1.06806 5.67219 0.566832 8.10058 -89.3628 10.6652 1.4225 1.13708 -1.0054 1.47116 1.07337 -23.5401 1.01504 1.512 -3.52749 1.01502 1.51199 89.4108 -27.8888 -108.796 45.0409 -21.8683 -4.21887 -12.4185 -22.4011 -20.4741 -8.1725 -0.120457 -3.71652 -88.0086 -51.3518 81.9545 -17.8596 14.3623 -13.7605 7.43173 -15.1354 -1.83686 -0.904827 -0.0941954 -4.4255 5.91049 -4.48775 -4.13208 -2.86109 -3.64668 -5.98467 
22.2693 99.1157 33.8516 -100.352 -49.8138 -102.244 -173.697 -2.45867 84.9296 -22.2526 -1.59104 -2.17014 77.8058 7.75017 -4.76945 18.3801 -11.9678 13.5437 179.854 18.1115 91.7214 -50.0433 -16.9892 -4.66477 68.8001 -5.54491 -4.29842 23.3988 0.285945 7.28355 0.0439761 8.01362 -89.7179 10.8458 0.21793 0.540677 -0.825253 0.241501 0.530562 -23.3595 0.0453588 0.581178 -3.34686 0.0453557 0.581174 90.5092 -27.4602 -106.721 45.4424 -18.6596 1.84799 -12.0715 -18.5903 -20.8519 -8.56058 -0.065518 -4.54257 -87.5588 -47.2748 81.899 -12.8143 10.5533 -18.7754 8.14317 -11.023 -8.74071 2.21161 -0.0333495 -2.94136 6.0351 -1.65223 -5.21415 -3.95297 -0.605538 -3.62565 
17.9668 98.3051 40.501 -98.1441 -47.1556 -98.672 -173.535 -8.87076 85.4549 -17.9828 -5.02544 -1.52423 81.6624 9.85535 -4.98757 18.0452 -11.862 13.0087 178.551 20.2866 95.2306 -24.8054 -11.8275 -0.322695 65.1874 -3.06658 -1.53767 23.3229 1.17606 4.36492 -0.493779 7.9235 -89.9731 11.0272 -0.970466 0.146812 -0.64336 -0.963085 0.18938 -23.1816 -0.969727 -0.151672 -3.1689 -0.969718 -0.151674 91.3522 -27.6419 -104.91 42.8422 -14.6263 7.18169 -12.9866 -14.7359 -23.3417 -8.60086 0.013949 -5.81615 -87.1648 -43.5826 81.8317 -8.65063 7.73788 -23.6434 9.14628 -8.10287 -12.8144 1.27794 -0.0865859 -4.30563 6.11551 0.497099 -5.52058 -4.28793 1.55267 -0.110156 
12.6596 96.1282 47.8355 -96.5335 -45.9011 -96.5883 -173.011 -16.1449 85.6175 -13.8305 -6.41712 -1.53285 85.0799 13.0413 -4.42005 19.3248 -11.6398 14.0779 178.897 21.0705 97.5904 -10.7718 -0.619837 1.61444 65.3114 -3.25445 -0.975886 23.6878 1.05855 4.23894 -0.730232 7.79379 -90.1379 11.2857 -1.51743 -0.123985 -0.384332 -1.52143 -0.0570761 -22.9257 -1.41 -0.574392 -2.91308 -1.41002 -0.5744 92.1895 -28.5417 -102.872 41.1331 -9.29721 10.3409 -12.6574 -14.6168 -20.9367 -12.1276 -0.203726 -3.26659 -87.4331 -43.0783 81.2968 -4.91056 6.04304 -28.475 9.07399 -8.57123 -15.7571 -0.0530776 -0.114797 -5.49709 6.83109 1.18344 -4.81895 -4.79689 2.09725 1.60714 
6.20812 95.0185 56.3779 -97.1177 -47.3912 -95.9051 -171.178 -22.0091 88.1831 -14.5212 -4.69046 -1.31721 80.4108 12.0443 -3.15771 33.682 -3.56407 14.601 177.983 24.4359 98.493 -22.7672 -2.68803 1.9581 64.6059 -0.164574 -3.46102 20.231 2.47091 4.35734 -1.0054 7.73863 -90.4306 11.393 -2.20141 -0.635509 -0.276225 -2.22722 -0.537973 -22.8221 -1.90861 -1.26793 -2.80945 -1.90861 -1.26793 92.7926 -29.4679 -101.345 41.5689 -8.26025 10.0689 -9.70428 -14.2342 -12.8718 -9.34421 -0.0659902 -4.66803 -88.1422 -44.7306 80.4882 -8.77917 4.8638 -30.1211 10.7869 -5.01655 -20.0881 -0.784366 -0.110181 -5.74013 8.09513 1.44963 -2.45864 -5.89143 1.88945 2.01455 
-0.975289 95.8854 65.0922 -99.8427 -48.3623 -97.0858 -167.579 -16.0873 94.1268 -34.7809 6.40913 -1.17116 66.3038 3.52647 0.244866 37.3799 -0.497675 12.0736 176.291 20.9068 98.6523 -32.0583 -4.03757 2.93753 66.4139 -1.39321 -4.18692 12.218 5.44087 5.51755 -1.00036 7.75286 -90.5738 11.3597 -2.25813 -0.916301 -0.309542 -2.29627 -0.815982 -22.8538 -1.87834 -1.55272 -2.84115 -1.87833 -1.55272 92.5552 -29.2993 -101.879 45.5561 -8.55478 9.74138 -9.6474 -12.1772 -12.8841 -5.48931 0.0697793 -7.37814 -88.4518 -46.6099 80.3829 -13.7838 10.9124 -27.7655 13.9292 2.59555 -22.5766 -2.30068 -0.0919516 -6.65636 7.30703 1.08557 -0.713393 -6.53092 1.17089 1.43232 
-7.31456 97.0688 71.5824 -101.992 -47.811 -96.7515 -166.28 -1.23777 99.8003 -57.2461 14.4343 0.443061 57.4259 -2.65354 -1.98949 9.73995 -11.3989 4.61467 176.75 13.0097 100.84 -31.8834 -3.60694 2.74495 70.0905 -4.88107 -4.26353 14.7593 5.1515 3.50316 -0.572908 7.96156 -90.7223 10.9404 -1.47483 -1.29725 -0.730264 -1.53049 -1.2311 -23.264 -1.01682 -1.68047 -3.25134 -1.01684 -1.68048 91.7507 -29.1814 -103.548 46.2071 -11.6224 4.988 -11.4558 -13.2407 -18.4257 -5.22508 0.0581779 -7.32469 -88.7279 -48.7478 80.3866 -16.6835 17.252 -24.5458 14.0956 7.48535 -18.9696 -5.78804 -0.0230069 -6.27147 7.2698 -0.24571 0.0599758 -6.32848 -0.282977 1.15261 
